# xmcd
#
# Track frame offsets:
#	182
#	20617
#	36430
#	55535
#	69360
#	89287
#	107902
#	133255
#	156642
#	175680
#	203955
#	222715
#
# Disc length: 3428 seconds
#
# Revision: 3
# Processed by: cddbd v1.5.1PL0 Copyright (c) Steve Scherf et al.
# Submitted via: EasyCDDAExtractor 8.2.1.1
#
DISCID=b40d620c
DTITLE=Steve Earle - Ain't Ever Satisfied (The Steve Earle Collection) - Disc 
DTITLE=2
DYEAR=1996
DGENRE=Country
TTITLE0=Copperhead Road
TTITLE1=Snake Oil
TTITLE2=Even When I'm Blue
TTITLE3=Devil's Right Hand
TTITLE4=Nothing But A Child
TTITLE5=Johnny Come Lately
TTITLE6=Dead Flowers (live)
TTITLE7=The Other Kind
TTITLE8=When The People Find Out
TTITLE9=Billy Austin
TTITLE10=She's About A Mover (live)
TTITLE11=West Nashville Boogie (live)
EXTD=
EXTT0=
EXTT1=
EXTT2=
EXTT3=
EXTT4=
EXTT5=
EXTT6=
EXTT7=
EXTT8=
EXTT9=
EXTT10=
EXTT11=
PLAYORDER=
